<svg xmlns="http://www.w3.org/2000/svg" viewBox="0 0 800 450" role="img" aria-label="Integration preview">
  <defs>
    <linearGradient id="bg" x1="0%" y1="0%" x2="100%" y2="100%">
      <stop offset="0%" stop-color="#0c1222"/>
      <stop offset="55%" stop-color="#0f172a"/>
      <stop offset="100%" stop-color="#042f2e"/>
    </linearGradient>
    <linearGradient id="stroke" x1="0%" y1="0%" x2="100%" y2="0%">
      <stop offset="0%" stop-color="#2dd4bf" stop-opacity="0.15"/>
      <stop offset="50%" stop-color="#5eead4" stop-opacity="0.55"/>
      <stop offset="100%" stop-color="#2dd4bf" stop-opacity="0.15"/>
    </linearGradient>
    <filter id="glow" x="-40%" y="-40%" width="180%" height="180%">
      <feGaussianBlur stdDeviation="8" result="b"/>
      <feMerge>
        <feMergeNode in="b"/>
        <feMergeNode in="SourceGraphic"/>
      </feMerge>
    </filter>
  </defs>
  <rect width="800" height="450" fill="url(#bg)"/>
  <g opacity="0.35" stroke="url(#stroke)" stroke-width="1.25" fill="none">
    <path d="M120 225 C220 120 320 330 400 225 S580 120 680 225"/>
    <path d="M140 320 C260 200 540 300 660 140"/>
  </g>
  <g filter="url(#glow)">
    <rect x="110" y="165" width="140" height="120" rx="16" fill="#134e4a" fill-opacity="0.55" stroke="#5eead4" stroke-opacity="0.5" stroke-width="1.5"/>
    <rect x="330" y="145" width="140" height="160" rx="16" fill="#1e293b" fill-opacity="0.7" stroke="#94a3b8" stroke-opacity="0.35" stroke-width="1.5"/>
    <rect x="550" y="165" width="140" height="120" rx="16" fill="#312e81" fill-opacity="0.45" stroke="#a5b4fc" stroke-opacity="0.45" stroke-width="1.5"/>
  </g>
  <circle cx="400" cy="225" r="10" fill="#5eead4" fill-opacity="0.9"/>
  <line x1="250" y1="225" x2="330" y2="225" stroke="#5eead4" stroke-opacity="0.45" stroke-width="2"/>
  <line x1="470" y1="225" x2="550" y2="225" stroke="#a5b4fc" stroke-opacity="0.5" stroke-width="2"/>
</svg>
